<svg width="115" height="32" viewBox="0 0 115 32" fill="none" xmlns="http://www.w3.org/2000/svg">
<path d="M42.4987 23.7501C40.5309 23.7501 38.9634 23.2165 37.7961 22.1493C36.6288 21.082 36.0201 19.4978 35.9701 17.3966C35.9701 17.2799 35.9701 17.1298 35.9701 16.9464C35.9701 16.7629 35.9701 16.6212 35.9701 16.5211C36.0201 15.2037 36.3119 14.0781 36.8455 13.1443C37.3959 12.1937 38.1463 11.4767 39.0968 10.9931C40.064 10.4928 41.1896 10.2426 42.4737 10.2426C43.9411 10.2426 45.1502 10.5345 46.1007 11.1181C47.0679 11.7018 47.7933 12.4939 48.2769 13.4944C48.7605 14.495 49.0023 15.6373 49.0023 16.9213V17.5217C49.0023 17.7051 48.9439 17.8552 48.8272 17.9719C48.7105 18.0887 48.5604 18.147 48.3769 18.147H40.3725C40.3725 18.1637 40.3725 18.1887 40.3725 18.2221C40.3725 18.2554 40.3725 18.2888 40.3725 18.3221C40.3892 18.8057 40.4726 19.2476 40.6226 19.6479C40.7894 20.0481 41.0229 20.3649 41.323 20.5984C41.6399 20.8319 42.0234 20.9486 42.4737 20.9486C42.8072 20.9486 43.0823 20.8986 43.2991 20.7985C43.5326 20.6818 43.7244 20.5567 43.8744 20.4233C44.0245 20.2732 44.1413 20.1481 44.2246 20.0481C44.3747 19.8646 44.4915 19.7563 44.5748 19.7229C44.6749 19.6729 44.825 19.6479 45.0251 19.6479H48.1268C48.2936 19.6479 48.427 19.6979 48.527 19.7979C48.6438 19.898 48.6938 20.0314 48.6771 20.1982C48.6604 20.4817 48.5187 20.8235 48.2519 21.2237C47.9851 21.624 47.5932 22.0242 47.0762 22.4244C46.5759 22.8079 45.9423 23.1248 45.1752 23.3749C44.4081 23.6251 43.5159 23.7501 42.4987 23.7501ZM40.3725 15.6707H44.5998V15.6206C44.5998 15.0703 44.5165 14.6034 44.3497 14.2198C44.1996 13.8196 43.9578 13.5111 43.6243 13.2943C43.3075 13.0775 42.9239 12.9692 42.4737 12.9692C42.0401 12.9692 41.6649 13.0775 41.348 13.2943C41.0312 13.5111 40.7894 13.8196 40.6226 14.2198C40.4559 14.6034 40.3725 15.0703 40.3725 15.6206V15.6707ZM56.2 23.7501C55.3996 23.7501 54.6742 23.6251 54.0238 23.3749C53.3901 23.1081 52.8398 22.7246 52.3729 22.2243C51.9227 21.7073 51.5725 21.0903 51.3223 20.3733C51.0722 19.6395 50.9304 18.8057 50.8971 17.8719C50.8804 17.5384 50.8721 17.2465 50.8721 16.9964C50.8721 16.7296 50.8804 16.4294 50.8971 16.0959C50.9304 15.2121 51.0722 14.4116 51.3223 13.6946C51.5725 12.9608 51.9227 12.3438 52.3729 11.8435C52.8232 11.3266 53.3735 10.9347 54.0238 10.6679C54.6742 10.3844 55.3996 10.2426 56.2 10.2426C57.0338 10.2426 57.7509 10.3844 58.3512 10.6679C58.9516 10.9347 59.4602 11.2849 59.8771 11.7185V6.36549C59.8771 6.18205 59.9354 6.03197 60.0522 5.91524C60.1689 5.79851 60.319 5.74014 60.5024 5.74014H63.5541C63.7209 5.74014 63.8626 5.79851 63.9794 5.91524C64.1128 6.03197 64.1795 6.18205 64.1795 6.36549V22.8747C64.1795 23.0414 64.1128 23.1915 63.9794 23.3249C63.8626 23.4416 63.7209 23.5 63.5541 23.5H60.7276C60.5441 23.5 60.394 23.4416 60.2773 23.3249C60.1606 23.1915 60.1022 23.0414 60.1022 22.8747V22.0742C59.702 22.5578 59.185 22.958 58.5513 23.2749C57.9177 23.5917 57.1339 23.7501 56.2 23.7501ZM57.5758 20.3983C58.1261 20.3983 58.5597 20.2815 58.8765 20.0481C59.21 19.7979 59.4518 19.4811 59.6019 19.0976C59.7687 18.714 59.8604 18.2971 59.8771 17.8469C59.8938 17.5133 59.9021 17.1965 59.9021 16.8963C59.9021 16.5962 59.8938 16.2877 59.8771 15.9708C59.8604 15.5539 59.7687 15.1704 59.6019 14.8202C59.4352 14.4533 59.185 14.1615 58.8515 13.9447C58.518 13.7112 58.0928 13.5945 57.5758 13.5945C57.0255 13.5945 56.5836 13.7112 56.2501 13.9447C55.9332 14.1782 55.6998 14.495 55.5497 14.8952C55.4163 15.2954 55.3329 15.7374 55.2995 16.221C55.2495 16.7379 55.2495 17.2549 55.2995 17.7718C55.3329 18.2554 55.4163 18.6973 55.5497 19.0976C55.6998 19.4978 55.9332 19.8146 56.2501 20.0481C56.5836 20.2815 57.0255 20.3983 57.5758 20.3983ZM71.9052 23.7501C70.9547 23.7501 70.1042 23.5334 69.3538 23.0998C68.6201 22.6662 68.0448 22.0325 67.6279 21.1987C67.211 20.3483 67.0025 19.3143 67.0025 18.097V11.1181C67.0025 10.9347 67.0609 10.7846 67.1776 10.6679C67.2943 10.5511 67.4444 10.4928 67.6279 10.4928H70.7546C70.938 10.4928 71.0881 10.5511 71.2049 10.6679C71.3383 10.7846 71.405 10.9347 71.405 11.1181V17.9469C71.405 19.5812 72.1304 20.3983 73.5812 20.3983C74.2649 20.3983 74.8068 20.1898 75.2071 19.7729C75.624 19.3394 75.8324 18.7307 75.8324 17.9469V11.1181C75.8324 10.9347 75.8908 10.7846 76.0075 10.6679C76.1242 10.5511 76.2743 10.4928 76.4578 10.4928H79.5845C79.7679 10.4928 79.918 10.5511 80.0348 10.6679C80.1515 10.7846 80.2098 10.9347 80.2098 11.1181V22.8747C80.2098 23.0414 80.1515 23.1915 80.0348 23.3249C79.918 23.4416 79.7679 23.5 79.5845 23.5H76.6829C76.5161 23.5 76.366 23.4416 76.2326 23.3249C76.1159 23.1915 76.0575 23.0414 76.0575 22.8747V21.9241C75.624 22.5245 75.057 22.983 74.3566 23.2999C73.6729 23.6001 72.8558 23.7501 71.9052 23.7501Z" fill="white"/>
<path d="M84.2967 23.5C84.13 23.5 83.9966 23.45 83.8965 23.3499C83.7965 23.2499 83.7464 23.1165 83.7464 22.9497V21.749C83.7464 21.5823 83.7965 21.4489 83.8965 21.3488C83.9966 21.2321 84.13 21.1737 84.2967 21.1737H85.4974C85.6642 21.1737 85.7976 21.2321 85.8976 21.3488C86.0143 21.4489 86.0727 21.5823 86.0727 21.749V22.9497C86.0727 23.1165 86.0143 23.2499 85.8976 23.3499C85.7976 23.45 85.6642 23.5 85.4974 23.5H84.2967ZM94.4414 23.7501C92.8239 23.7501 91.5398 23.2248 90.5893 22.1743C89.6388 21.107 89.0968 19.7146 88.9634 17.9969C88.9467 17.7468 88.9384 17.4133 88.9384 16.9964C88.9384 16.5795 88.9467 16.246 88.9634 15.9958C89.0468 14.8619 89.3136 13.8613 89.7638 12.9942C90.2141 12.127 90.8311 11.4516 91.6149 10.968C92.4153 10.4844 93.3575 10.2426 94.4414 10.2426C95.6087 10.2426 96.601 10.5011 97.4181 11.0181C98.2352 11.535 98.8605 12.2771 99.2941 13.2443C99.7444 14.2115 99.9695 15.3621 99.9695 16.6962V17.0714C99.9695 17.2382 99.9111 17.3716 99.7944 17.4717C99.6943 17.5717 99.5609 17.6217 99.3942 17.6217H90.4892C90.4892 17.6217 90.4892 17.6551 90.4892 17.7218C90.4892 17.7885 90.4892 17.8385 90.4892 17.8719C90.5226 18.6223 90.6977 19.3394 91.0145 20.0231C91.3314 20.6901 91.7816 21.2404 92.3653 21.674C92.9489 22.0909 93.641 22.2993 94.4414 22.2993C95.1585 22.2993 95.7505 22.1909 96.2174 21.9742C96.701 21.7574 97.0846 21.5239 97.368 21.2738C97.6515 21.0069 97.835 20.8068 97.9184 20.6734C98.0684 20.4566 98.1852 20.3316 98.2685 20.2982C98.3519 20.2482 98.4853 20.2232 98.6688 20.2232H99.069C99.2191 20.2232 99.3441 20.2732 99.4442 20.3733C99.5609 20.4566 99.611 20.5734 99.5943 20.7235C99.5776 20.9569 99.4442 21.2488 99.1941 21.5989C98.9606 21.9325 98.6187 22.266 98.1685 22.5995C97.7349 22.933 97.2013 23.2082 96.5676 23.425C95.9339 23.6417 95.2252 23.7501 94.4414 23.7501ZM90.4892 16.221H98.4436V16.1209C98.4436 15.2871 98.2852 14.5367 97.9684 13.8697C97.6515 13.2026 97.193 12.6773 96.5926 12.2938C95.9923 11.8936 95.2752 11.6934 94.4414 11.6934C93.6076 11.6934 92.8906 11.8936 92.2902 12.2938C91.7066 12.6773 91.2563 13.2026 90.9395 13.8697C90.6393 14.5367 90.4892 15.2871 90.4892 16.1209V16.221ZM108.096 23.7501C106.479 23.7501 105.195 23.2248 104.244 22.1743C103.294 21.107 102.752 19.7146 102.618 17.9969C102.602 17.7468 102.593 17.4133 102.593 16.9964C102.593 16.5795 102.602 16.246 102.618 15.9958C102.702 14.8619 102.969 13.8613 103.419 12.9942C103.869 12.127 104.486 11.4516 105.27 10.968C106.07 10.4844 107.013 10.2426 108.096 10.2426C109.264 10.2426 110.256 10.5011 111.073 11.0181C111.89 11.535 112.516 12.2771 112.949 13.2443C113.399 14.2115 113.625 15.3621 113.625 16.6962V17.0714C113.625 17.2382 113.566 17.3716 113.449 17.4717C113.349 17.5717 113.216 17.6217 113.049 17.6217H104.144C104.144 17.6217 104.144 17.6551 104.144 17.7218C104.144 17.7885 104.144 17.8385 104.144 17.8719C104.178 18.6223 104.353 19.3394 104.67 20.0231C104.986 20.6901 105.437 21.2404 106.02 21.674C106.604 22.0909 107.296 22.2993 108.096 22.2993C108.814 22.2993 109.406 22.1909 109.872 21.9742C110.356 21.7574 110.74 21.5239 111.023 21.2738C111.307 21.0069 111.49 20.8068 111.573 20.6734C111.723 20.4566 111.84 20.3316 111.924 20.2982C112.007 20.2482 112.14 20.2232 112.324 20.2232H112.724C112.874 20.2232 112.999 20.2732 113.099 20.3733C113.216 20.4566 113.266 20.5734 113.249 20.7235C113.233 20.9569 113.099 21.2488 112.849 21.5989C112.616 21.9325 112.274 22.266 111.824 22.5995C111.39 22.933 110.856 23.2082 110.223 23.425C109.589 23.6417 108.88 23.7501 108.096 23.7501ZM104.144 16.221H112.099V16.1209C112.099 15.2871 111.94 14.5367 111.623 13.8697C111.307 13.2026 110.848 12.6773 110.248 12.2938C109.647 11.8936 108.93 11.6934 108.096 11.6934C107.263 11.6934 106.546 11.8936 105.945 12.2938C105.362 12.6773 104.911 13.2026 104.595 13.8697C104.294 14.5367 104.144 15.2871 104.144 16.1209V16.221Z" fill="white"/>
<path d="M3.75208 14.2576C5.8243 14.2576 7.50416 12.5777 7.50416 10.5055C7.50416 8.43328 5.8243 6.75342 3.75208 6.75342C1.67986 6.75342 0 8.43328 0 10.5055C0 12.5777 1.67986 14.2576 3.75208 14.2576Z" fill="#F8B243"/>
<path d="M11.2562 30.5167C14.0191 30.5167 16.259 28.2768 16.259 25.5139C16.259 22.7509 14.0191 20.5111 11.2562 20.5111C8.49324 20.5111 6.25342 22.7509 6.25342 25.5139C6.25342 28.2768 8.49324 30.5167 11.2562 30.5167Z" fill="#D5401A"/>
<path d="M21.2618 18.0098C23.3341 18.0098 25.0139 16.3299 25.0139 14.2577C25.0139 12.1855 23.3341 10.5056 21.2618 10.5056C19.1896 10.5056 17.5098 12.1855 17.5098 14.2577C17.5098 16.3299 19.1896 18.0098 21.2618 18.0098Z" fill="#15ADC2"/>
</svg>
